<?xml version="1.0" standalone="no"?>
<!DOCTYPE svg PUBLIC "-//W3C//DTD SVG 20010904//EN"
 "http://www.w3.org/TR/2001/REC-SVG-20010904/DTD/svg10.dtd">
<svg version="1.0" xmlns="http://www.w3.org/2000/svg"
 width="512.000000pt" height="512.000000pt" viewBox="0 0 512.000000 512.000000"
 preserveAspectRatio="xMidYMid meet">
<metadata>
Created by potrace 1.14, written by Peter Selinger 2001-2017
</metadata>
<g transform="translate(0.000000,512.000000) scale(0.100000,-0.100000)"
fill="#000000" stroke="none">
<path d="M0 2560 l0 -2560 2560 0 2560 0 0 2560 0 2560 -2560 0 -2560 0 0
-2560z m2615 1710 c7 -19 45 -102 85 -185 39 -82 90 -188 112 -235 22 -47 51
-107 64 -133 28 -57 29 -71 8 -151 -8 -34 -22 -87 -30 -118 -8 -32 -21 -84
-29 -115 -7 -32 -21 -87 -29 -123 -29 -120 -136 -565 -145 -600 -22 -85 -41
-167 -43 -194 -2 -16 -8 -31 -14 -33 -11 -4 -27 49 -74 242 -17 72 -38 157
-46 190 -26 99 -42 166 -59 240 -9 39 -22 93 -30 120 -7 28 -31 129 -54 225
-23 96 -46 193 -52 216 -10 39 -8 46 64 195 80 165 148 309 204 427 19 40 39
72 45 70 5 -2 16 -19 23 -38z m-658 -584 c43 -35 103 -84 133 -108 30 -24 56
-53 58 -64 1 -10 9 -44 17 -74 8 -30 53 -212 100 -405 47 -192 92 -375 99
-405 8 -30 21 -82 29 -115 9 -33 23 -89 32 -125 9 -36 23 -90 30 -120 40 -156
81 -325 95 -390 15 -69 31 -110 41 -110 5 0 9 10 9 22 0 12 7 49 16 82 8 34
21 86 29 116 30 123 46 187 91 360 7 30 45 186 84 345 39 160 77 315 85 345 8
30 35 138 60 240 25 102 50 202 56 222 7 28 25 49 77 89 37 29 97 77 133 106
90 72 98 71 79 -9 -5 -24 -16 -77 -24 -118 -36 -186 -49 -249 -61 -310 -7 -36
-21 -103 -30 -150 -38 -199 -46 -237 -55 -280 -5 -25 -12 -61 -15 -80 -3 -19
-10 -55 -15 -80 -15 -73 -38 -189 -55 -275 -32 -168 -47 -242 -60 -310 -27
-132 -44 -220 -70 -360 -15 -77 -33 -171 -40 -210 -26 -130 -44 -220 -54 -275
-5 -30 -13 -63 -16 -72 -4 -11 -3 -18 4 -18 6 0 11 5 11 12 0 6 7 20 17 30 9
10 21 28 27 40 12 24 45 36 55 21 3 -6 29 -25 56 -45 28 -19 82 -56 120 -83
39 -26 102 -71 140 -100 39 -28 78 -54 88 -58 27 -10 20 -25 -15 -32 -18 -4
-64 -17 -103 -29 -38 -12 -97 -31 -130 -40 -33 -10 -76 -24 -95 -31 -19 -7
-62 -20 -95 -30 -33 -10 -98 -31 -145 -46 -139 -48 -245 -37 -470 46 -19 7
-57 19 -85 28 -204 62 -324 100 -345 109 l-24 10 24 19 c14 11 34 24 45 30 11
5 47 30 80 54 33 25 94 68 135 97 41 28 95 66 119 85 24 18 47 33 50 33 4 0
17 -21 30 -46 16 -34 25 -44 33 -36 8 8 7 28 -5 74 -8 35 -23 104 -32 153 -9
50 -22 122 -30 160 -45 228 -70 359 -90 470 -9 50 -21 108 -25 130 -5 22 -19
92 -30 155 -11 63 -25 133 -30 155 -4 22 -16 81 -25 130 -9 50 -22 119 -30
155 -7 36 -21 103 -30 150 -9 47 -20 105 -26 130 -5 25 -14 70 -19 100 -11 61
-30 160 -86 450 -25 128 -28 150 -15 150 6 0 46 -29 88 -64z m-353 -528 c19
-64 52 -174 67 -223 10 -33 26 -85 35 -115 9 -30 22 -73 29 -95 6 -22 20 -67
30 -100 10 -33 23 -78 30 -100 7 -22 21 -67 30 -100 9 -33 20 -71 25 -85 5
-14 22 -72 40 -130 17 -58 37 -123 44 -145 7 -22 21 -67 31 -100 10 -33 23
-78 30 -100 7 -22 21 -67 30 -100 10 -33 21 -68 26 -77 12 -24 11 -58 -1 -58
-6 0 -14 8 -17 18 -4 9 -10 19 -15 23 -4 3 -21 30 -36 60 -29 55 -113 206
-150 269 -11 19 -30 53 -42 75 -53 96 -85 153 -107 187 -12 21 -23 40 -23 42
0 3 -13 27 -29 54 -15 26 -41 70 -56 98 -109 193 -130 232 -142 256 -15 29
-15 28 66 248 18 47 39 105 48 130 20 60 32 80 44 80 5 0 11 -6 13 -12z m2012
-33 c8 -22 25 -71 39 -110 13 -38 34 -95 46 -125 13 -33 24 -84 27 -127 4 -76
3 -77 -87 -232 -15 -25 -30 -53 -34 -61 -4 -8 -15 -28 -25 -45 -18 -28 -51
-87 -103 -183 -13 -24 -28 -51 -34 -60 -12 -21 -52 -92 -143 -252 -39 -69 -85
-150 -102 -180 -17 -30 -36 -67 -43 -82 -13 -33 -37 -37 -37 -7 0 11 11 53 24
92 13 40 34 106 46 147 24 81 36 123 55 185 7 22 21 67 30 100 10 33 24 75 31
93 8 18 14 38 14 46 0 7 13 53 29 102 16 49 36 116 46 149 34 116 65 220 76
250 6 17 15 46 19 65 4 19 12 49 18 65 5 17 20 64 33 105 37 125 50 136 75 65z
m-2051 -1092 c61 -80 152 -201 203 -267 140 -182 152 -198 152 -208 0 -19 -28
-5 -75 38 -27 25 -70 62 -95 82 -75 62 -243 203 -282 238 l-38 34 0 115 c0 86
3 115 13 115 6 -1 62 -67 122 -147z m2165 2 l0 -102 -97 -81 c-54 -45 -113
-94 -132 -109 -19 -15 -68 -57 -110 -93 -94 -81 -140 -114 -148 -106 -5 5 26
51 69 101 16 19 88 112 266 343 48 63 95 127 106 143 14 24 21 27 32 18 10 -8
14 -39 14 -114z"/>
</g>
</svg>
